<?xml version="1.0" encoding="iso-8859-1"?>
<!-- Generator: Adobe Illustrator 16.0.0, SVG Export Plug-In . SVG Version: 6.00 Build 0)  -->
<!DOCTYPE svg PUBLIC "-//W3C//DTD SVG 1.1//EN" "http://www.w3.org/Graphics/SVG/1.1/DTD/svg11.dtd">
<svg version="1.1" id="Capa_1" xmlns="http://www.w3.org/2000/svg" xmlns:xlink="http://www.w3.org/1999/xlink" x="0px" y="0px"
	 width="316.112px" height="316.112px" viewBox="0 0 316.112 316.112" style="enable-background:new 0 0 316.112 316.112;"
	 xml:space="preserve">
<g>
	<path d="M294.987,161.515c-6.793-1.615-13.675-3.056-20.074-5.938c-3.575-1.606-6.871-3.396-10.608-4.638
		c-9.208-3.066-18.778-5.145-28.252-7.189c-13.984-3.013-27.891-5.341-42.106-6.755c-5.952-0.591-11.895-1.187-17.849-1.791
		c-2.351-0.236-4.708-0.478-7.056-0.724c-0.776-0.082-1.542-0.163-2.319-0.25c-0.395-0.042-1.202-0.278-0.399-0.037
		c0.504,0.501,1.003,1,1.503,1.499c-1.833-8.609-3.334-17.533-3.214-26.365c0.059-4.328,0.835-8.622,1.56-12.874
		c0.582-3.423,0.771-7.149,2.457-10.258c2.119-3.91,6.781-4.472,10.751-5.083c3.61-0.56,7.238-0.984,10.866-1.391
		c18.918-2.145,37.917-3.55,56.83-5.709c3.26-0.373,6.52-0.769,9.763-1.291c1.706-0.273,3.56-0.504,5.124-1.307
		c0.992-0.509,1.591-1.772,1.633-2.837c0.099-2.328-1.9-3.396-3.833-4.011c-4.854-1.536-10.455-1.784-15.49-2.467
		c-10.31-1.392-20.641-2.649-30.987-3.698c-6.72-0.678-13.506,0.152-20.247,0.399c-9.926,0.359-19.864,0.549-29.774,1.128
		c-3.323,0.194-6.176,0.956-9.386,1.858c-2.606,0.732-5.268,1.441-7.966,1.77c-3.642,0.44-7.314-0.541-10.781-1.549
		c-1.958-0.57-6.14-2.929-8.068-1.761c0.656-0.399,0.16-0.087-0.169-0.016c-0.419,0.088-0.842,0.154-1.267,0.212
		c-2.405,0.357-5.651,0.604-8.36,0.835c-9.053,0.764-18.121,1.349-27.176,1.984c-7.656,0.536-15.336,0.981-22.971,1.822
		c-4.895,0.538-9.706,1.764-14.496,2.871c-8.467,1.951-16.864,4.187-25.26,6.428c-4.798,1.279-13.082,1.774-14.455,7.719
		c-0.774,3.354,1.189,4.483,4.05,4.821c7.008,0.822,14.598-0.563,21.554-1.327c9.294-1.017,18.567-2.248,27.856-3.321
		c3.202-0.373,6.407-0.743,9.627-0.947c6.3-0.397,12.738,0.554,18.995,1.173c4.021,0.397,8.058,0.617,12.079,0.992
		c2.708,0.254,5.354,1.2,7.322,3.108c3.896,3.775,3.94,10.535,4.347,15.551c0.711,8.675,0.902,17.405,1.308,26.098
		c0.461,9.901,0.834,19.84,1.815,29.71c0.77,7.704,1.743,15.383,2.507,23.093c0.854,8.635,1.457,17.329,2.638,25.928
		c0.585,4.269,1.312,8.521,1.646,12.818c0.349,4.478-0.061,9.009-0.184,13.486c-0.242,8.678-0.215,17.365,0.254,26.042
		c0.447,8.33,1.73,16.5,2.767,24.761c0.882,7.024,0.8,14.527-3.483,20.521c-3.226,4.508-1.758,9.333,3.625,10.972
		c5.089,1.548,11.635-0.273,13.63-5.55c1.056-2.781,1.082-5.758,0.791-8.687c-0.408-4.116-0.898-8.074-0.725-12.227
		c0.354-8.72,2.417-17.454,3.755-26.053c1.318-8.483,1.791-16.877,2.092-25.449c0.257-7.396,1.765-14.636,2.161-22.017
		c0.527-9.736,0.958-19.475,1.404-29.218c0.21-4.578,0.415-9.154,0.622-13.732c0.103-2.236-0.472-6.583,2.045-7.722
		c-0.553,0.068-1.103,0.141-1.656,0.211c1.811,0.408,3.821,0.33,5.664,0.439c4.214,0.257,8.429,0.488,12.644,0.719
		c11.102,0.61,22.193,1.218,33.292,1.891c5.155,0.31,10.32,0.813,15.48,0.854c7.265,0.06,14.53-0.691,21.78-1.07
		c6.797-0.346,13.328-0.252,19.937,1.527c7.905,2.132,15.244,5.528,22.908,8.305c5.68,2.054,11.953,1.014,15.187-4.394
		C305.528,168.591,299.254,162.806,294.987,161.515c-2.662-0.803-3.791,3.348-1.145,4.147c1.963,0.587,3.807,2.451,4.876,4.132
		c1.119,1.758-1.407,3.683-2.882,4.271c-3.08,1.244-6.65-0.085-9.5-1.296c-3.771-1.612-7.575-3.118-11.435-4.51
		c-6.619-2.372-13.343-4.379-20.403-4.719c-7.098-0.336-14.236,0.399-21.318,0.834c-11.496,0.703-22.877-0.33-34.347-0.998
		c-10.688-0.618-21.381-1.196-32.069-1.794c-3.055-0.174-6.117-0.333-9.178-0.554c-0.31-0.023-0.623-0.049-0.935-0.076
		c-0.2-0.016-0.585-0.097,0.273,0.042c-0.473-0.074-0.703-0.134-1.175-0.005c-2.549,0.698-4.3,3.943-4.442,6.415
		c-0.391,6.734-0.617,13.48-0.929,20.215c-0.441,9.596-0.866,19.191-1.392,28.771c-0.425,7.807-1.936,15.449-2.183,23.292
		c-0.287,8.909-1.103,17.561-2.528,26.358c-1.336,8.269-3.12,16.63-3.315,25.029c-0.087,3.722,0.499,7.333,0.866,11.023
		c0.305,3.081,0.283,7.145-2.748,8.871c-2.2,1.249-6.203,1.146-8.192-0.467c-1.601-1.291,1.919-5.423,2.52-6.578
		c3.322-6.373,3.139-13.779,2.27-20.708c-1.05-8.331-2.265-16.542-2.722-24.94c-0.467-8.667-0.407-17.366-0.166-26.048
		c0.113-4.152,0.41-8.294,0.155-12.446c-0.262-4.331-1.047-8.635-1.662-12.925c-1.272-8.902-1.848-17.932-2.729-26.881
		c-1.182-11.985-2.714-23.896-3.412-35.915c-0.62-10.633-1.039-21.276-1.544-31.918c-0.163-3.423-0.307-6.854-0.584-10.269
		c-0.447-5.47-0.845-11.286-3.801-16.071c-2.811-4.548-7.816-6.226-12.879-6.693c-8.698-0.805-17.465-1.74-26.195-2.107
		c-6.99-0.289-14.074,0.974-20.987,1.819c-9.407,1.145-18.808,2.359-28.241,3.237c-3.607,0.33-7.229,0.632-10.854,0.671
		c-0.871,0.011-2.585-0.044-2.971-0.097c-0.344-0.049-0.682-0.123-1.01-0.233c0.553,0.184-0.066-0.139,0.446,0.281
		c0.842,0.692,0.343,0.522,0.842-0.467c0.457-0.898,1.898-1.194,2.754-1.452c1.764-0.538,3.569-0.963,5.349-1.436
		c4.365-1.165,8.727-2.333,13.105-3.472c8.402-2.194,16.84-4.247,25.35-5.971c4.047-0.825,8.822-1.05,13.326-1.399
		c7.155-0.553,14.314-1.031,21.476-1.53c6.756-0.476,13.512-0.942,20.265-1.533c2.165-0.188,4.33-0.386,6.488-0.661
		c1.191-0.15,2.714-0.189,3.788-0.832c-0.554,0.067-1.1,0.144-1.654,0.215c6.299,1.939,12.767,4.529,19.476,3.557
		c2.688-0.387,5.315-1.053,7.927-1.775c1.108-0.305,2.21-0.627,3.312-0.95c0.391-0.113,2.016-0.538,1.74-0.512
		c8.721-0.966,17.651-0.848,26.418-1.144c5.122-0.171,10.246-0.344,15.364-0.585c2.688-0.124,5.453-0.554,8.142-0.344
		c9.203,0.719,18.389,1.956,27.539,3.124c5.327,0.676,10.656,1.391,15.964,2.22c1.244,0.191,2.487,0.396,3.727,0.638
		c0.667,0.128,1.312,0.312,1.958,0.517c1.003,0.318-0.231,0.059,0.089-0.635c0.257-0.543,0.693-0.627,0.641-0.606
		c-0.341,0.134-0.709,0.221-1.06,0.312c-6.059,1.51-12.515,1.854-18.7,2.494c-18.846,1.966-37.764,3.338-56.556,5.756
		c-3.051,0.394-6.11,0.8-9.123,1.404c-5.481,1.092-9.318,4.557-11.009,9.849c-1.108,3.467-1.37,7.365-1.963,10.95
		c-0.704,4.294-1.237,8.608-1.192,12.969c0.088,8.504,1.605,17.157,3.371,25.454c0.151,0.73,0.808,1.3,1.496,1.499
		c1.732,0.509,3.841,0.437,5.627,0.621c4.021,0.412,8.041,0.815,12.068,1.223c6.887,0.695,13.769,1.404,20.661,2.054
		c6.62,0.627,13.197,2.011,19.722,3.273c10.221,1.984,20.416,4.186,30.489,6.833c4.834,1.272,9.9,2.503,14.441,4.661
		c3.616,1.713,7.093,3.504,10.893,4.806c4.809,1.644,9.821,2.683,14.761,3.859C296.541,166.307,297.681,162.16,294.987,161.515z"/>
	<path d="M165.154,25.218c-0.185,11.536-9.368,20.722-20.904,20.906c-11.536,0.181-20.728-9.651-20.904-20.906
		c-0.183-11.535,9.649-20.727,20.904-20.905C155.786,4.131,164.975,13.956,165.154,25.218c0.041,2.77,4.345,2.775,4.298,0
		c-0.184-11.955-8.496-22.259-20.252-24.716c-11.587-2.417-23.693,4.112-28.202,15.008c-4.646,11.22-0.527,23.901,9.341,30.733
		c9.914,6.858,23.641,4.879,31.975-3.447c4.636-4.637,7.035-11.084,7.134-17.578C169.499,22.444,165.195,22.449,165.154,25.218z"/>
</g>
<g>
</g>
<g>
</g>
<g>
</g>
<g>
</g>
<g>
</g>
<g>
</g>
<g>
</g>
<g>
</g>
<g>
</g>
<g>
</g>
<g>
</g>
<g>
</g>
<g>
</g>
<g>
</g>
<g>
</g>
</svg>
