<?xml version="1.0" encoding="iso-8859-1"?>
<!-- Generator: Adobe Illustrator 18.0.0, SVG Export Plug-In . SVG Version: 6.00 Build 0)  -->
<!DOCTYPE svg PUBLIC "-//W3C//DTD SVG 1.1//EN" "http://www.w3.org/Graphics/SVG/1.1/DTD/svg11.dtd">
<svg version="1.1" id="Capa_1" xmlns="http://www.w3.org/2000/svg" xmlns:xlink="http://www.w3.org/1999/xlink" x="0px" y="0px"
	 viewBox="0 0 471.162 471.162" style="enable-background:new 0 0 471.162 471.162;" xml:space="preserve">
<path d="M437.45,195.957c-0.732,0-1.456,0.032-2.176,0.078v-73.628c0-18.588-15.123-33.711-33.712-33.711
	c-6.945,0-13.406,2.113-18.776,5.727c-1.353-2.169-2.957-4.202-4.81-6.051c-6.364-6.364-14.831-9.869-23.841-9.869
	c-8.12,0-15.73,2.841-21.702,7.889c-28.693-21.373-68.612-20.942-96.848,1.302c-13.995-11.056-31.181-17.055-49.289-17.055
	c-17.387,0-33.922,5.536-47.6,15.764c-5.971-5.016-13.59-7.9-21.672-7.9c-9.01,0-17.477,3.505-23.841,9.869
	c-1.851,1.851-3.452,3.885-4.804,6.054c-5.371-3.616-11.833-5.73-18.78-5.73c-18.589,0-33.712,15.123-33.712,33.711v73.628
	c-0.72-0.046-1.444-0.078-2.176-0.078C15.123,195.957,0,211.08,0,229.668v69.352c0,21.166,11.226,41.159,29.297,52.178
	c12.157,7.413,19.709,20.863,19.709,35.102v4.223c0,5.523,4.477,10,10,10s10-4.477,10-10V386.3
	c0-21.165-11.226-41.159-29.297-52.178C27.552,326.709,20,313.259,20,299.02v-69.352c0-7.561,6.151-13.711,13.711-13.711
	s13.712,6.151,13.712,13.711v44.219c0,5.523,4.477,10,10,10s10-4.477,10-10v-44.219c0-10.103-4.473-19.175-11.536-25.358v-81.903
	c0-7.561,6.151-13.711,13.712-13.711c7.561,0,13.711,6.151,13.711,13.711v98.93c0,5.523,4.477,10,10,10
	c5.505,0,9.968-4.448,9.997-9.946c0.001-0.02,0.007-0.038,0.007-0.058v-109.12c0-3.668,1.424-7.112,4.011-9.699
	c2.586-2.587,6.031-4.011,9.699-4.011c2.555,0,4.998,0.707,7.102,1.98c-25.108,31.265-23.177,77.216,5.815,106.208l0.793,0.793
	v13.849c0,5.523,4.477,10,10,10c3.751,0,7.015-2.068,8.726-5.123l75.984,75.984c-1.342,19.397-12.349,37.039-29.403,46.71
	c-3.132,1.776-5.067,5.099-5.067,8.699v27.79c0,5.523,4.477,10,10,10s10-4.477,10-10v-22.227
	c10.304-6.932,18.677-16.15,24.609-26.747c5.931,10.597,14.301,19.815,24.602,26.747v22.227c0,5.523,4.477,10,10,10s10-4.477,10-10
	v-27.79c0-3.6-1.936-6.923-5.067-8.699c-17.05-9.669-28.054-27.315-29.393-46.719l75.975-75.974
	c1.711,3.054,4.975,5.122,8.725,5.122c5.523,0,10-4.477,10-10v-13.847l0.795-0.795c28.993-28.993,30.923-74.945,5.814-106.21
	c2.1-1.275,4.537-1.978,7.101-1.978c3.668,0,7.112,1.424,9.708,4.02c2.587,2.582,4.013,6.023,4.013,9.69v10.021
	c0,0.058-0.004,0.115-0.004,0.173v98.93c0,5.523,4.477,10,10,10c5.502,0,9.963-4.444,9.997-9.938
	c0.001-0.022,0.008-0.043,0.008-0.066V122.32c0.047-7.52,6.176-13.625,13.707-13.625c7.561,0,13.712,6.151,13.712,13.711v81.903
	c-7.063,6.184-11.536,15.256-11.536,25.358v44.219c0,5.523,4.477,10,10,10s10-4.477,10-10v-44.219
	c0-7.561,6.151-13.711,13.712-13.711c7.561,0,13.711,6.151,13.711,13.711v69.352c0,14.239-7.552,27.689-19.709,35.102
	c-18.071,11.019-29.297,31.012-29.297,52.178v4.223c0,5.523,4.477,10,10,10s10-4.477,10-10V386.3
	c0-14.239,7.552-27.689,19.709-35.102c18.071-11.019,29.297-31.012,29.297-52.178v-69.352
	C471.162,211.08,456.039,195.957,437.45,195.957z M327.077,192.549l-91.497,91.497l-91.496-91.496
	c-23.276-23.276-23.276-61.149,0-84.425c11.275-11.276,26.267-17.485,42.212-17.485s30.938,6.209,42.212,17.485
	c1.875,1.875,4.419,2.929,7.072,2.929c2.652,0,5.196-1.054,7.071-2.929c11.275-11.275,26.267-17.485,42.212-17.485
	s30.937,6.209,42.212,17.485C350.354,131.4,350.354,169.273,327.077,192.549z"/>
<g>
</g>
<g>
</g>
<g>
</g>
<g>
</g>
<g>
</g>
<g>
</g>
<g>
</g>
<g>
</g>
<g>
</g>
<g>
</g>
<g>
</g>
<g>
</g>
<g>
</g>
<g>
</g>
<g>
</g>
</svg>
