<?xml version="1.0" encoding="iso-8859-1"?>
<!-- Generator: Adobe Illustrator 18.1.1, SVG Export Plug-In . SVG Version: 6.00 Build 0)  -->
<svg version="1.1" id="Capa_1" xmlns="http://www.w3.org/2000/svg" xmlns:xlink="http://www.w3.org/1999/xlink" x="0px" y="0px"
	 viewBox="0 0 42.572 42.572" style="enable-background:new 0 0 42.572 42.572;" xml:space="preserve">
<g>
	<path style="fill:#010002;" d="M41.454,0l-6.176,0.604c-0.138,0.015-0.266,0.073-0.37,0.171L30.96,4.551L3.128,3.125
		C2.917,3.101,2.716,3.199,2.583,3.378l-1.98,2.701c-0.117,0.159-0.152,0.359-0.096,0.55c0.057,0.188,0.2,0.341,0.384,0.405
		l21.108,7.787l-9.252,10.077l-7.261-0.692L5.44,24.205c-0.219,0-0.406,0.096-0.526,0.271l-1.979,2.883
		c-0.118,0.172-0.144,0.39-0.067,0.583c0.075,0.191,0.241,0.334,0.444,0.381l9.181,2.079l2.784,10.266
		c0.055,0.198,0.202,0.357,0.397,0.427c0.191,0.064,0.409,0.034,0.572-0.083l3.239-2.342c0.189-0.135,0.287-0.362,0.255-0.594
		l-1.034-7.377l9.906-9.796l8.125,21.267c0.073,0.193,0.238,0.337,0.445,0.387c0.044,0.01,0.093,0.015,0.139,0.015
		c0.158,0,0.31-0.06,0.425-0.168l2.705-2.523c0.143-0.133,0.215-0.32,0.198-0.513l-2.473-28.11l3.743-4.024
		c0.109-0.115,0.169-0.267,0.169-0.425l0.004-6.184c0-0.174-0.074-0.343-0.206-0.465C41.77,0.056,41.62,0,41.454,0z M40.839,6.562
		l-3.765,4.045c-0.121,0.128-0.182,0.304-0.167,0.481l2.47,28.086l-1.804,1.683l-8.135-21.296c-0.076-0.198-0.245-0.344-0.451-0.388
		c-0.044-0.01-0.089-0.015-0.133-0.015c-0.167,0-0.323,0.065-0.439,0.181L17.602,30.031c-0.14,0.141-0.204,0.334-0.178,0.53
		l1.025,7.315l-2.203,1.591L13.6,29.709c-0.061-0.223-0.239-0.394-0.466-0.444l-8.648-1.959l1.251-1.82l7.203,0.687
		c0.199,0.015,0.387-0.059,0.517-0.2l10.092-10.992c0.142-0.154,0.197-0.367,0.148-0.569c-0.049-0.204-0.195-0.368-0.392-0.439
		L2.101,6.151l1.291-1.762l27.771,1.425l0.042,0.001c0.156,0,0.308-0.062,0.424-0.175l3.987-3.813l5.228-0.514L40.839,6.562z"/>
</g>
<g>
</g>
<g>
</g>
<g>
</g>
<g>
</g>
<g>
</g>
<g>
</g>
<g>
</g>
<g>
</g>
<g>
</g>
<g>
</g>
<g>
</g>
<g>
</g>
<g>
</g>
<g>
</g>
<g>
</g>
</svg>
