<svg width="14" height="14" viewBox="0 0 14 14" fill="none" xmlns="http://www.w3.org/2000/svg">
<g clip-path="url(#clip0_3_636)">
<path d="M0.41952 6.15088C0.190789 6.15088 0.00537109 6.33632 0.00537109 6.56503V12.6479C0.00537109 12.8766 0.190817 13.062 0.41952 13.062H2.91472V6.15088H0.41952Z" fill="#C5CDD6"/>
<path d="M13.9946 8.43794C13.9946 7.9122 13.7121 7.45119 13.291 7.19869C13.4523 6.9657 13.547 6.68305 13.547 6.37879C13.547 5.58273 12.8993 4.93507 12.1033 4.93507H9.05557C9.14898 4.51178 9.27673 3.87661 9.36568 3.2117C9.59717 1.48135 9.43896 0.521722 8.86783 0.191709C8.51176 -0.0139981 8.12785 -0.0557248 7.78682 0.0741036C7.52337 0.174455 7.16757 0.421178 6.96481 1.02671L6.1638 3.124C5.75772 4.12689 4.51415 5.17977 3.74292 5.76194V13.2453C5.17229 13.7462 6.66384 14 8.18552 14H11.5063C12.3024 14 12.95 13.3524 12.95 12.5563C12.95 12.2775 12.8706 12.0169 12.7332 11.796C13.2145 11.5616 13.5469 11.0674 13.5469 10.4971C13.5469 10.1928 13.4523 9.91024 13.2909 9.67722C13.7121 9.42473 13.9946 8.96368 13.9946 8.43794Z" fill="#C5CDD6"/>
</g>
<defs>
<clipPath id="clip0_3_636">
<rect width="14" height="14" fill="white"/>
</clipPath>
</defs>
</svg>
